<svg xmlns="http://www.w3.org/2000/svg" width="21" height="21" viewBox="0 0 21 21" fill="none">
  <path d="M14.875 1.75H6.125C3.70875 1.75 1.75 3.70875 1.75 6.125V14.875C1.75 17.2912 3.70875 19.25 6.125 19.25H14.875C17.2912 19.25 19.25 17.2912 19.25 14.875V6.125C19.25 3.70875 17.2912 1.75 14.875 1.75Z" stroke="url(#paint0_linear_60_1894)" stroke-width="1.5" stroke-linecap="round" stroke-linejoin="round"/>
  <path d="M14.0002 9.94875C14.1082 10.677 13.9838 11.4207 13.6448 12.0741C13.3057 12.7276 12.7692 13.2575 12.1117 13.5885C11.4541 13.9194 10.7089 14.0347 9.98204 13.9177C9.25522 13.8007 8.58377 13.4576 8.06322 12.937C7.54266 12.4165 7.1995 11.745 7.08254 11.0182C6.96558 10.2914 7.08079 9.54616 7.41177 8.88858C7.74275 8.231 8.27264 7.69453 8.92609 7.35547C9.57954 7.0164 10.3233 6.89202 11.0515 7C11.7943 7.11015 12.482 7.45628 13.013 7.98727C13.544 8.51826 13.8901 9.20595 14.0002 9.94875Z" stroke="url(#paint1_linear_60_1894)" stroke-width="1.5" stroke-linecap="round" stroke-linejoin="round"/>
  <path d="M16.6108 5.49498C16.6513 5.76806 16.6047 6.04695 16.4775 6.292C16.3504 6.53704 16.1492 6.73575 15.9026 6.85987C15.656 6.98399 15.3765 7.02719 15.104 6.98333C14.8314 6.93947 14.5796 6.81079 14.3844 6.61558C14.1892 6.42037 14.0605 6.16858 14.0167 5.89602C13.9728 5.62346 14.016 5.34401 14.1401 5.09741C14.2642 4.85082 14.463 4.64964 14.708 4.5225C14.953 4.39535 15.2319 4.3487 15.505 4.3892C15.7836 4.4305 16.0415 4.5603 16.2406 4.75942C16.4397 4.95854 16.5695 5.21643 16.6108 5.49498Z" fill="url(#paint2_linear_60_1894)"/>
  <defs>
    <linearGradient id="paint0_linear_60_1894" x1="2.75231" y1="10.4197" x2="18.2411" y2="11.3259" gradientUnits="userSpaceOnUse">
      <stop stop-color="#E54C15"/>
      <stop offset="0.818093" stop-color="#FD1245"/>
      <stop offset="1" stop-color="#FF5154"/>
    </linearGradient>
    <linearGradient id="paint1_linear_60_1894" x1="7.43901" y1="10.43" x2="13.6345" y2="10.7925" gradientUnits="userSpaceOnUse">
      <stop stop-color="#E54C15"/>
      <stop offset="0.818093" stop-color="#FD1245"/>
      <stop offset="1" stop-color="#FF5154"/>
    </linearGradient>
    <linearGradient id="paint2_linear_60_1894" x1="14.1503" y1="5.67546" x2="16.4737" y2="5.81139" gradientUnits="userSpaceOnUse">
      <stop stop-color="#E54C15"/>
      <stop offset="0.818093" stop-color="#FD1245"/>
      <stop offset="1" stop-color="#FF5154"/>
    </linearGradient>
  </defs>
</svg>
